<svg xmlns="http://www.w3.org/2000/svg" xmlns:xlink="http://www.w3.org/1999/xlink" contentStyleType="text/css" data-diagram-type="SEQUENCE" height="752px" preserveAspectRatio="none" style="width:1070px;height:752px;background:#FFFFFF;" version="1.1" viewBox="0 0 1070 752" width="1070px" zoomAndPan="magnify"><?plantuml 1.2026.6?><defs/><g><g class="title" data-source-line="3"><text fill="#000000" font-family="Arial" font-size="14" font-weight="700" lengthAdjust="spacing" textLength="446.5439" x="308.5181" y="27.9951">Sequence &#8212; Transactional outbox and idempotent inbox</text></g><rect fill="#F8FAFC" height="127.8438" rx="5" ry="5" style="stroke:#64748B;stroke-width:1.5;" width="494.5313" x="392.9805" y="342.0469"/><rect fill="#F8FAFC" height="115.8438" rx="5" ry="5" style="stroke:#64748B;stroke-width:1.5;" width="661.5996" x="392.9805" y="539.8281"/><path d="M392.9805,583.7656 L1054.5801,583.7656 L1054.5801,650.6719 A5,5 0 0 1 1049.5801,655.6719 L397.9805,655.6719 A5,5 0 0 1 392.9805,650.6719 L392.9805,583.7656" fill="#F8FAFC" style="stroke:none;stroke-width:1;"/><g class="participant-lifeline" data-entity-uid="part1" data-qualified-name="Client" data-source-line="4" id="part1-lifeline"><g><title>Client</title><rect fill="#000000" fill-opacity="0.00000" height="556.4063" width="8" x="21.3701" y="116.2656"/><line style="stroke:#181818;stroke-width:0.5;stroke-dasharray:5,5;" x1="25" x2="25" y1="116.2656" y2="672.6719"/></g></g><g class="participant-lifeline" data-entity-uid="part2" data-qualified-name="API" data-source-line="5" id="part2-lifeline"><g><title>Distributed API</title><rect fill="#000000" fill-opacity="0.00000" height="556.4063" width="8" x="272.7783" y="116.2656"/><line style="stroke:#181818;stroke-width:0.5;stroke-dasharray:5,5;" x1="276.0156" x2="276.0156" y1="116.2656" y2="672.6719"/></g></g><g class="participant-lifeline" data-entity-uid="part3" data-qualified-name="DB" data-source-line="6" id="part3-lifeline"><g><title>SQLite</title><rect fill="#000000" fill-opacity="0.00000" height="556.4063" width="8" x="421.5654" y="116.2656"/><line style="stroke:#181818;stroke-width:0.5;stroke-dasharray:5,5;" x1="424.9805" x2="424.9805" y1="116.2656" y2="672.6719"/></g></g><g class="participant-lifeline" data-entity-uid="part4" data-qualified-name="Publisher" data-source-line="7" id="part4-lifeline"><g><title>Outbox Publisher</title><rect fill="#000000" fill-opacity="0.00000" height="556.4063" width="8" x="605.4033" y="116.2656"/><line style="stroke:#181818;stroke-width:0.5;stroke-dasharray:5,5;" x1="608.9375" x2="608.9375" y1="116.2656" y2="672.6719"/></g></g><g class="participant-lifeline" data-entity-uid="part5" data-qualified-name="Kafka" data-source-line="8" id="part5-lifeline"><g><title>Redpanda</title><rect fill="#000000" fill-opacity="0.00000" height="556.4063" width="8" x="833.0693" y="116.2656"/><line style="stroke:#181818;stroke-width:0.5;stroke-dasharray:5,5;" x1="836.627" x2="836.627" y1="116.2656" y2="672.6719"/></g></g><g class="participant-lifeline" data-entity-uid="part6" data-qualified-name="Worker" data-source-line="9" id="part6-lifeline"><g><title>Workflow Worker</title><rect fill="#000000" fill-opacity="0.00000" height="556.4063" width="8" x="982.0674" y="116.2656"/><line style="stroke:#181818;stroke-width:0.5;stroke-dasharray:5,5;" x1="985.5547" x2="985.5547" y1="116.2656" y2="672.6719"/></g></g><g class="participant participant-head" data-entity-uid="part1" data-qualified-name="Client" data-source-line="4" id="part1-head"><text fill="#000000" font-family="Arial" font-size="12" lengthAdjust="spacing" textLength="34.7402" x="5" y="113.4355">Client</text><ellipse cx="25.3701" cy="50.7969" fill="#E2E2F0" rx="8" ry="8" style="stroke:#181818;stroke-width:0.5;"/><path d="M25.3701,58.7969 L25.3701,85.7969 M12.3701,66.7969 L38.3701,66.7969 M25.3701,85.7969 L12.3701,100.7969 M25.3701,85.7969 L38.3701,100.7969" fill="none" style="stroke:#181818;stroke-width:0.5;"/></g><g class="participant participant-tail" data-entity-uid="part1" data-qualified-name="Client" data-source-line="4" id="part1-tail"><text fill="#000000" font-family="Arial" font-size="12" lengthAdjust="spacing" textLength="34.7402" x="5" y="682.8105">Client</text><ellipse cx="25.3701" cy="694.1406" fill="#E2E2F0" rx="8" ry="8" style="stroke:#181818;stroke-width:0.5;"/><path d="M25.3701,702.1406 L25.3701,729.1406 M12.3701,710.1406 L38.3701,710.1406 M25.3701,729.1406 L12.3701,744.1406 M25.3701,729.1406 L38.3701,744.1406" fill="none" style="stroke:#181818;stroke-width:0.5;"/></g><g class="participant participant-head" data-entity-uid="part2" data-qualified-name="API" data-source-line="5" id="part2-head"><rect fill="#E2E2F0" height="27.9688" rx="5" ry="5" style="stroke:#181818;stroke-width:0.5;" width="103.5254" x="225.0156" y="87.2969"/><text fill="#000000" font-family="Arial" font-size="12" lengthAdjust="spacing" textLength="89.5254" x="232.0156" y="105.4355">Distributed API</text></g><g class="participant participant-tail" data-entity-uid="part2" data-qualified-name="API" data-source-line="5" id="part2-tail"><rect fill="#E2E2F0" height="27.9688" rx="5" ry="5" style="stroke:#181818;stroke-width:0.5;" width="103.5254" x="225.0156" y="671.6719"/><text fill="#000000" font-family="Arial" font-size="12" lengthAdjust="spacing" textLength="89.5254" x="232.0156" y="689.8105">Distributed API</text></g><g class="participant participant-head" data-entity-uid="part3" data-qualified-name="DB" data-source-line="6" id="part3-head"><text fill="#0F172A" font-family="Arial" font-size="12" lengthAdjust="spacing" textLength="39.1699" x="402.9805" y="113.4355">SQLite</text><path d="M407.5654,66.2969 C407.5654,56.2969 425.5654,56.2969 425.5654,56.2969 C425.5654,56.2969 443.5654,56.2969 443.5654,66.2969 L443.5654,92.2969 C443.5654,102.2969 425.5654,102.2969 425.5654,102.2969 C425.5654,102.2969 407.5654,102.2969 407.5654,92.2969 L407.5654,66.2969" fill="#FEF3C7" style="stroke:#334155;stroke-width:0.5;"/><path d="M407.5654,66.2969 C407.5654,76.2969 425.5654,76.2969 425.5654,76.2969 C425.5654,76.2969 443.5654,76.2969 443.5654,66.2969" fill="none" style="stroke:#334155;stroke-width:0.5;"/></g><g class="participant participant-tail" data-entity-uid="part3" data-qualified-name="DB" data-source-line="6" id="part3-tail"><text fill="#0F172A" font-family="Arial" font-size="12" lengthAdjust="spacing" textLength="39.1699" x="402.9805" y="682.8105">SQLite</text><path d="M407.5654,695.6406 C407.5654,685.6406 425.5654,685.6406 425.5654,685.6406 C425.5654,685.6406 443.5654,685.6406 443.5654,695.6406 L443.5654,721.6406 C443.5654,731.6406 425.5654,731.6406 425.5654,731.6406 C425.5654,731.6406 407.5654,731.6406 407.5654,721.6406 L407.5654,695.6406" fill="#FEF3C7" style="stroke:#334155;stroke-width:0.5;"/><path d="M407.5654,695.6406 C407.5654,705.6406 425.5654,705.6406 425.5654,705.6406 C425.5654,705.6406 443.5654,705.6406 443.5654,695.6406" fill="none" style="stroke:#334155;stroke-width:0.5;"/></g><g class="participant participant-head" data-entity-uid="part4" data-qualified-name="Publisher" data-source-line="7" id="part4-head"><rect fill="#E2E2F0" height="27.9688" rx="5" ry="5" style="stroke:#181818;stroke-width:0.5;" width="116.9316" x="550.9375" y="87.2969"/><text fill="#000000" font-family="Arial" font-size="12" lengthAdjust="spacing" textLength="102.9316" x="557.9375" y="105.4355">Outbox Publisher</text></g><g class="participant participant-tail" data-entity-uid="part4" data-qualified-name="Publisher" data-source-line="7" id="part4-tail"><rect fill="#E2E2F0" height="27.9688" rx="5" ry="5" style="stroke:#181818;stroke-width:0.5;" width="116.9316" x="550.9375" y="671.6719"/><text fill="#000000" font-family="Arial" font-size="12" lengthAdjust="spacing" textLength="102.9316" x="557.9375" y="689.8105">Outbox Publisher</text></g><g class="participant participant-head" data-entity-uid="part5" data-qualified-name="Kafka" data-source-line="8" id="part5-head"><path d="M801.627,92.2969 L872.5117,92.2969 C877.5117,92.2969 877.5117,104.2813 877.5117,104.2813 C877.5117,104.2813 877.5117,116.2656 872.5117,116.2656 L801.627,116.2656 C796.627,116.2656 796.627,104.2813 796.627,104.2813 C796.627,104.2813 796.627,92.2969 801.627,92.2969" fill="#FCE7F3" style="stroke:#334155;stroke-width:0.5;"/><path d="M872.5117,92.2969 C867.5117,92.2969 867.5117,104.2813 867.5117,104.2813 C867.5117,116.2656 872.5117,116.2656 872.5117,116.2656" fill="none" style="stroke:#334155;stroke-width:0.5;"/><text fill="#0F172A" font-family="Arial" font-size="12" lengthAdjust="spacing" textLength="60.8848" x="801.627" y="108.4355">Redpanda</text></g><g class="participant participant-tail" data-entity-uid="part5" data-qualified-name="Kafka" data-source-line="8" id="part5-tail"><path d="M801.627,671.6719 L872.5117,671.6719 C877.5117,671.6719 877.5117,683.6563 877.5117,683.6563 C877.5117,683.6563 877.5117,695.6406 872.5117,695.6406 L801.627,695.6406 C796.627,695.6406 796.627,683.6563 796.627,683.6563 C796.627,683.6563 796.627,671.6719 801.627,671.6719" fill="#FCE7F3" style="stroke:#334155;stroke-width:0.5;"/><path d="M872.5117,671.6719 C867.5117,671.6719 867.5117,683.6563 867.5117,683.6563 C867.5117,695.6406 872.5117,695.6406 872.5117,695.6406" fill="none" style="stroke:#334155;stroke-width:0.5;"/><text fill="#0F172A" font-family="Arial" font-size="12" lengthAdjust="spacing" textLength="60.8848" x="801.627" y="687.8105">Redpanda</text></g><g class="participant participant-head" data-entity-uid="part6" data-qualified-name="Worker" data-source-line="9" id="part6-head"><rect fill="#E2E2F0" height="27.9688" rx="5" ry="5" style="stroke:#181818;stroke-width:0.5;" width="117.0254" x="927.5547" y="87.2969"/><text fill="#000000" font-family="Arial" font-size="12" lengthAdjust="spacing" textLength="103.0254" x="934.5547" y="105.4355">Workflow Worker</text></g><g class="participant participant-tail" data-entity-uid="part6" data-qualified-name="Worker" data-source-line="9" id="part6-tail"><rect fill="#E2E2F0" height="27.9688" rx="5" ry="5" style="stroke:#181818;stroke-width:0.5;" width="117.0254" x="927.5547" y="671.6719"/><text fill="#000000" font-family="Arial" font-size="12" lengthAdjust="spacing" textLength="103.0254" x="934.5547" y="689.8105">Workflow Worker</text></g><g class="message" data-entity-1="part1" data-entity-2="part2" data-source-line="11" id="msg1"><polygon fill="#475569" points="264.7783,142.2344,274.7783,146.2344,264.7783,150.2344,268.7783,146.2344" style="stroke:#475569;stroke-width:1;stroke-linejoin:miter;stroke-miterlimit:10;"/><line style="stroke:#475569;stroke-width:1;" x1="25.3701" x2="270.7783" y1="146.2344" y2="146.2344"/><text fill="#000000" font-family="Arial" font-size="12" lengthAdjust="spacing" textLength="227.4082" x="32.3701" y="141.4043">command with tenant and correlation</text></g><g class="message" data-entity-1="part2" data-entity-2="part3" data-source-line="12" id="msg2"><polygon fill="#475569" points="413.5654,170.2031,423.5654,174.2031,413.5654,178.2031,417.5654,174.2031" style="stroke:#475569;stroke-width:1;stroke-linejoin:miter;stroke-miterlimit:10;"/><line style="stroke:#475569;stroke-width:1;" x1="276.7783" x2="419.5654" y1="174.2031" y2="174.2031"/><text fill="#000000" font-family="Arial" font-size="12" lengthAdjust="spacing" textLength="37.6289" x="283.7783" y="169.373">BEGIN</text></g><g class="message" data-entity-1="part2" data-entity-2="part3" data-source-line="13" id="msg3"><polygon fill="#475569" points="413.5654,198.1719,423.5654,202.1719,413.5654,206.1719,417.5654,202.1719" style="stroke:#475569;stroke-width:1;stroke-linejoin:miter;stroke-miterlimit:10;"/><line style="stroke:#475569;stroke-width:1;" x1="276.7783" x2="419.5654" y1="202.1719" y2="202.1719"/><text fill="#000000" font-family="Arial" font-size="12" lengthAdjust="spacing" textLength="108.0586" x="283.7783" y="197.3418">update aggregate</text></g><g class="message" data-entity-1="part2" data-entity-2="part3" data-source-line="14" id="msg4"><polygon fill="#475569" points="413.5654,226.1406,423.5654,230.1406,413.5654,234.1406,417.5654,230.1406" style="stroke:#475569;stroke-width:1;stroke-linejoin:miter;stroke-miterlimit:10;"/><line style="stroke:#475569;stroke-width:1;" x1="276.7783" x2="419.5654" y1="230.1406" y2="230.1406"/><text fill="#000000" font-family="Arial" font-size="12" lengthAdjust="spacing" textLength="124.7871" x="283.7783" y="225.3105">insert timeline event</text></g><g class="message" data-entity-1="part3" data-entity-2="part3" data-source-line="15" id="msg5"><line style="stroke:#475569;stroke-width:1;" x1="425.5654" x2="467.5654" y1="258.1094" y2="258.1094"/><line style="stroke:#475569;stroke-width:1;" x1="467.5654" x2="467.5654" y1="258.1094" y2="271.1094"/><line style="stroke:#475569;stroke-width:1;" x1="426.5654" x2="467.5654" y1="271.1094" y2="271.1094"/><polygon fill="#475569" points="436.5654,267.1094,426.5654,271.1094,436.5654,275.1094,432.5654,271.1094" style="stroke:#475569;stroke-width:1;stroke-linejoin:miter;stroke-miterlimit:10;"/><text fill="#000000" font-family="Arial" font-size="12" lengthAdjust="spacing" textLength="156.2344" x="432.5654" y="253.2793">trigger inserts outbox row</text></g><g class="message" data-entity-1="part2" data-entity-2="part3" data-source-line="16" id="msg6"><polygon fill="#475569" points="413.5654,295.0781,423.5654,299.0781,413.5654,303.0781,417.5654,299.0781" style="stroke:#475569;stroke-width:1;stroke-linejoin:miter;stroke-miterlimit:10;"/><line style="stroke:#475569;stroke-width:1;" x1="276.7783" x2="419.5654" y1="299.0781" y2="299.0781"/><text fill="#000000" font-family="Arial" font-size="12" lengthAdjust="spacing" textLength="49.4004" x="283.7783" y="294.248">COMMIT</text></g><g class="message" data-entity-1="part2" data-entity-2="part1" data-source-line="17" id="msg7"><polygon fill="#475569" points="36.3701,323.0469,26.3701,327.0469,36.3701,331.0469,32.3701,327.0469" style="stroke:#475569;stroke-width:1;stroke-linejoin:miter;stroke-miterlimit:10;"/><line style="stroke:#475569;stroke-width:1;stroke-dasharray:2,2;" x1="30.3701" x2="275.7783" y1="327.0469" y2="327.0469"/><text fill="#000000" font-family="Arial" font-size="12" lengthAdjust="spacing" textLength="89.4668" x="42.3701" y="322.2168">accepted state</text></g><path d="M397.9805,342.0469 L467.1719,342.0469 L467.1719,348.0156 L457.1719,358.0156 L392.9805,358.0156 L392.9805,347.0469 A5,5 0 0 1 397.9805,342.0469" fill="#EEEEEE" style="stroke:#000000;stroke-width:1.5;"/><rect fill="none" height="127.8438" rx="5" ry="5" style="stroke:#64748B;stroke-width:1.5;" width="494.5313" x="392.9805" y="342.0469"/><text fill="#000000" font-family="Arial" font-size="12" font-weight="700" lengthAdjust="spacing" textLength="29.1914" x="407.9805" y="354.1855">loop</text><text fill="#000000" font-family="Arial" font-size="12" font-weight="700" lengthAdjust="spacing" textLength="112.5586" x="482.1719" y="355.1855">[until published]</text><g class="message" data-entity-1="part4" data-entity-2="part3" data-source-line="20" id="msg8"><polygon fill="#475569" points="436.5654,373.9844,426.5654,377.9844,436.5654,381.9844,432.5654,377.9844" style="stroke:#475569;stroke-width:1;stroke-linejoin:miter;stroke-miterlimit:10;"/><line style="stroke:#475569;stroke-width:1;" x1="430.5654" x2="608.4033" y1="377.9844" y2="377.9844"/><text fill="#000000" font-family="Arial" font-size="12" lengthAdjust="spacing" textLength="159.8379" x="442.5654" y="373.1543">claim PENDING/RETRY row</text></g><g class="message" data-entity-1="part4" data-entity-2="part5" data-source-line="21" id="msg9"><polygon fill="#475569" points="825.0693,401.9531,835.0693,405.9531,825.0693,409.9531,829.0693,405.9531" style="stroke:#475569;stroke-width:1;stroke-linejoin:miter;stroke-miterlimit:10;"/><line style="stroke:#475569;stroke-width:1;" x1="609.4033" x2="831.0693" y1="405.9531" y2="405.9531"/><text fill="#000000" font-family="Arial" font-size="12" lengthAdjust="spacing" textLength="203.666" x="616.4033" y="401.123">publish envelope keyed by caseId</text></g><g class="message" data-entity-1="part5" data-entity-2="part4" data-source-line="22" id="msg10"><polygon fill="#475569" points="620.4033,429.9219,610.4033,433.9219,620.4033,437.9219,616.4033,433.9219" style="stroke:#475569;stroke-width:1;stroke-linejoin:miter;stroke-miterlimit:10;"/><line style="stroke:#475569;stroke-width:1;stroke-dasharray:2,2;" x1="614.4033" x2="836.0693" y1="433.9219" y2="433.9219"/><text fill="#000000" font-family="Arial" font-size="12" lengthAdjust="spacing" textLength="86.6133" x="626.4033" y="429.0918">acknowledged</text></g><g class="message" data-entity-1="part4" data-entity-2="part3" data-source-line="23" id="msg11"><polygon fill="#475569" points="436.5654,457.8906,426.5654,461.8906,436.5654,465.8906,432.5654,461.8906" style="stroke:#475569;stroke-width:1;stroke-linejoin:miter;stroke-miterlimit:10;"/><line style="stroke:#475569;stroke-width:1;" x1="430.5654" x2="608.4033" y1="461.8906" y2="461.8906"/><text fill="#000000" font-family="Arial" font-size="12" lengthAdjust="spacing" textLength="102.6797" x="442.5654" y="457.0605">mark PUBLISHED</text></g><g class="message" data-entity-1="part5" data-entity-2="part6" data-source-line="26" id="msg12"><polygon fill="#475569" points="974.0674,492.8594,984.0674,496.8594,974.0674,500.8594,978.0674,496.8594" style="stroke:#475569;stroke-width:1;stroke-linejoin:miter;stroke-miterlimit:10;"/><line style="stroke:#475569;stroke-width:1;" x1="837.0693" x2="980.0674" y1="496.8594" y2="496.8594"/><text fill="#000000" font-family="Arial" font-size="12" lengthAdjust="spacing" textLength="124.998" x="844.0693" y="492.0293">event (at least once)</text></g><g class="message" data-entity-1="part6" data-entity-2="part3" data-source-line="27" id="msg13"><polygon fill="#475569" points="436.5654,520.8281,426.5654,524.8281,436.5654,528.8281,432.5654,524.8281" style="stroke:#475569;stroke-width:1;stroke-linejoin:miter;stroke-miterlimit:10;"/><line style="stroke:#475569;stroke-width:1;" x1="430.5654" x2="985.0674" y1="524.8281" y2="524.8281"/><text fill="#000000" font-family="Arial" font-size="12" lengthAdjust="spacing" textLength="189.8672" x="442.5654" y="519.998">check inbox(consumer,eventId)</text></g><path d="M397.9805,539.8281 L455.9277,539.8281 L455.9277,545.7969 L445.9277,555.7969 L392.9805,555.7969 L392.9805,544.8281 A5,5 0 0 1 397.9805,539.8281" fill="#EEEEEE" style="stroke:#000000;stroke-width:1.5;"/><rect fill="none" height="115.8438" rx="5" ry="5" style="stroke:#64748B;stroke-width:1.5;" width="661.5996" x="392.9805" y="539.8281"/><text fill="#000000" font-family="Arial" font-size="12" font-weight="700" lengthAdjust="spacing" textLength="17.9473" x="407.9805" y="551.9668">alt</text><text fill="#000000" font-family="Arial" font-size="12" font-weight="700" lengthAdjust="spacing" textLength="134.9414" x="470.9277" y="552.9668">[already processed]</text><g class="message" data-entity-1="part6" data-entity-2="part5" data-source-line="29" id="msg14"><polygon fill="#475569" points="848.0693,571.7656,838.0693,575.7656,848.0693,579.7656,844.0693,575.7656" style="stroke:#475569;stroke-width:1;stroke-linejoin:miter;stroke-miterlimit:10;"/><line style="stroke:#475569;stroke-width:1;" x1="842.0693" x2="985.0674" y1="575.7656" y2="575.7656"/><text fill="#000000" font-family="Arial" font-size="12" lengthAdjust="spacing" textLength="83.3027" x="854.0693" y="570.9355">commit offset</text></g><line style="stroke:#64748B;stroke-width:1;stroke-dasharray:2,2;" x1="392.9805" x2="1054.5801" y1="584.7656" y2="584.7656"/><text fill="#000000" font-family="Arial" font-size="12" font-weight="700" lengthAdjust="spacing" textLength="81.293" x="397.9805" y="595.9043">[new event]</text><g class="message" data-entity-1="part6" data-entity-2="part3" data-source-line="31" id="msg15"><polygon fill="#475569" points="436.5654,615.7031,426.5654,619.7031,436.5654,623.7031,432.5654,619.7031" style="stroke:#475569;stroke-width:1;stroke-linejoin:miter;stroke-miterlimit:10;"/><line style="stroke:#475569;stroke-width:1;" x1="430.5654" x2="985.0674" y1="619.7031" y2="619.7031"/><text fill="#000000" font-family="Arial" font-size="12" lengthAdjust="spacing" textLength="312.416" x="442.5654" y="614.873">apply effect + projection + inbox in one transaction</text></g><g class="message" data-entity-1="part6" data-entity-2="part5" data-source-line="32" id="msg16"><polygon fill="#475569" points="848.0693,643.6719,838.0693,647.6719,848.0693,651.6719,844.0693,647.6719" style="stroke:#475569;stroke-width:1;stroke-linejoin:miter;stroke-miterlimit:10;"/><line style="stroke:#475569;stroke-width:1;" x1="842.0693" x2="985.0674" y1="647.6719" y2="647.6719"/><text fill="#000000" font-family="Arial" font-size="12" lengthAdjust="spacing" textLength="83.3027" x="854.0693" y="642.8418">commit offset</text></g><?plantuml-src ZLDDRnCn4BtxLmmvjUBhtaCbqaHbHPk6f0XnGXDxTcFMQnlRsv0RFu9Vo2_fsBj9218IbrrxvldDcpVs2ssbwHN1rxIbZjxelZD299qCmPg-zsGbmU-Vl-0ne8qeatOM3RW-RTmFGAj0A-gyIsGJQCj1mI0NuCPe3WcF8McfFN9wCjCn1Rtf4obujwmcW37_XSA46um4a_N7Evse96RJyyCFGybblp4wRYaKq74dM6hF12jI35TOiX-mRl6SvRCBRMtS3l9Y91cMGWoIuVLr5WLN85tNvGvtEcs16ym4UIzT26GmMo4oaW_CfeoVpc-hnLcazzmQ0JPDe8PNPqbj8uK4INTaj2MWfsmOfmu0zgffA8p0U30zkDqPpyt3_NtrE8GuDdPn1IWb-MnrJBcqCCvvw6tI1lnecn9mil18A0tg3fRpnQnQtBvTpHzNNqhHlx35NOQFP43sYOpp12tjkUfc3v9dMkKQ0pIhEp5aWQrrEqEg-OUG3aCBoq_JkshzVZuJP9KG8zNrE3L65T_W0XCOmfZ0yPMz56FwsDEMP3jSq0lfREmx2g_AoKfT2ZGyMHC8rHvyS99YB99E98TcyvtGNAEk8oL1XY-jfTqukpyFbAhelTa3rJN912ypzJSgJuWtHGj_MI_ng8-lwt_AMlKC?></g></svg>